HIERARCHY
ROOT Joint1
{
	OFFSET 0.000000 0.000000 0.000000
	CHANNELS 6 Xposition Yposition Zposition Xrotation Yrotation Zrotation
	JOINT Joint2
	{
		OFFSET -0.000000 0.000000 1.456275
		CHANNELS 6 Xposition Yposition Zposition Xrotation Yrotation Zrotation
		JOINT Joint3
		{
			OFFSET -0.000000 0.000002 1.471446
			CHANNELS 6 Xposition Yposition Zposition Xrotation Yrotation Zrotation
			JOINT Joint4
			{
				OFFSET 0.625745 0.000000 0.917755
				CHANNELS 6 Xposition Yposition Zposition Xrotation Yrotation Zrotation
				JOINT Joint5
				{
					OFFSET -0.629534 0.000001 0.940221
					CHANNELS 6 Xposition Yposition Zposition Xrotation Yrotation Zrotation
					JOINT Joint6
					{
						OFFSET -0.000001 0.113772 1.960660
						CHANNELS 6 Xposition Yposition Zposition Xrotation Yrotation Zrotation
						JOINT Joint7
						{
							OFFSET -0.669733 -0.113771 0.388340
							CHANNELS 6 Xposition Yposition Zposition Xrotation Yrotation Zrotation
							End Site
							{
								OFFSET 0.005509 0.005509 0.438980
							}
						}
					}
				}
			}
		}
	}
}
MOTION
Frames: 24
Frame Time: 0.041667
0.000000 0.000000 0.000000 -0.000000 1.019410 -0.002661 -0.000000 0.000000 1.456275 0.000000 -44.964812 0.000000 -0.000000 0.000002 1.471446 0.000000 -1.133460 -0.021893 0.625745 0.000000 0.917755 0.000004 135.025258 -0.000001 -0.629534 0.000001 0.940221 -0.000000 1.709737 0.008393 -0.000000 0.113772 1.960660 -88.263926 90.004572 0.025558 -0.669733 -0.113771 0.388341 -0.704672 3.566197 134.936015 
0.000000 0.000000 0.000000 -0.000000 1.019410 0.021219 -0.000000 0.000000 1.456275 -0.000000 -44.913528 -0.000000 -0.000000 0.000002 1.471446 0.000000 -1.133461 0.016471 0.625745 0.000000 0.917755 0.000004 135.041050 -0.000001 -0.629534 0.000001 0.940220 -0.000000 1.709737 0.065015 -0.000000 0.113772 1.960661 -88.301533 90.079765 0.001611 -0.669733 -0.113771 0.388341 -0.703254 3.566194 134.856211 
0.000000 0.000000 0.000000 -0.000000 1.019410 0.060933 -0.000000 -0.000000 1.456275 0.000000 -44.828242 -0.000000 -0.000000 0.000002 1.471446 0.000000 -1.133459 0.080270 0.625744 0.000000 0.917755 0.000004 135.067305 -0.000001 -0.629534 0.000001 0.940221 0.000000 1.709736 0.159178 -0.000001 0.113772 1.960661 -88.303028 90.204826 0.000578 -0.669733 -0.113771 0.388340 -0.700897 3.566186 134.723501 
0.000000 0.000000 0.000000 -0.000000 1.019410 0.116409 -0.000000 0.000000 1.456275 -0.000000 -44.709114 0.000000 -0.000000 0.000002 1.471446 -0.000000 -1.133460 0.169390 0.625745 0.000000 0.917755 0.000004 135.103983 -0.000001 -0.629533 0.000001 0.940221 -0.000000 1.709736 0.290715 -0.000000 0.113772 1.960660 -88.303424 90.379522 0.000338 -0.669733 -0.113771 0.388340 -0.697604 3.566165 134.538116 
0.000000 0.000000 0.000000 -0.000000 1.019410 0.187576 -0.000000 0.000000 1.456275 -0.000000 -44.556285 -0.000000 -0.000000 0.000002 1.471446 -0.000000 -1.133464 0.283717 0.625745 0.000000 0.917755 0.000003 135.151057 -0.000001 -0.629533 0.000001 0.940221 -0.000000 1.709737 0.459455 -0.000001 0.113772 1.960660 -88.303609 90.603627 0.000224 -0.669733 -0.113771 0.388339 -0.693380 3.566122 134.300288 
0.000000 0.000000 0.000000 -0.000000 1.019410 0.274363 -0.000000 0.000000 1.456275 -0.000000 -44.369920 -0.000000 -0.000000 0.000002 1.471446 0.000000 -1.133456 0.423136 0.625745 0.000000 0.917755 0.000004 135.208430 -0.000001 -0.629534 0.000001 0.940221 0.000000 1.709737 0.665230 -0.000000 0.113772 1.960661 -88.303677 90.876917 0.000162 -0.669733 -0.113771 0.388340 -0.688230 3.566046 134.010265 
0.000000 0.000000 0.000000 -0.000000 1.019410 0.376698 -0.000000 0.000000 1.456275 -0.000000 -44.150162 -0.000000 -0.000000 0.000002 1.471446 -0.000000 -1.133461 0.587533 0.625745 0.000000 0.917755 0.000004 135.276104 -0.000001 -0.629534 0.000001 0.940221 0.000000 1.709737 0.907871 -0.000002 0.113772 1.960661 -88.303718 91.199172 0.000117 -0.669733 -0.113771 0.388339 -0.682156 3.565924 133.668277 
0.000000 0.000000 0.000000 -0.000000 1.019410 0.494510 -0.000000 0.000000 1.456275 0.000000 -43.897168 0.000000 -0.000000 0.000002 1.471446 0.000000 -1.133459 0.776794 0.625745 0.000000 0.917755 0.000003 135.353982 -0.000001 -0.629534 0.000001 0.940221 0.000000 1.709737 1.187209 -0.000001 0.113772 1.960660 -88.303766 91.570167 0.000088 -0.669733 -0.113771 0.388340 -0.675166 3.565737 133.274599 
0.000000 0.000000 0.000000 -0.000000 1.019410 0.627728 -0.000000 0.000000 1.456275 0.000000 -43.611086 0.000000 -0.000000 0.000002 1.471445 -0.000000 -1.133458 0.990804 0.625744 0.000000 0.917755 0.000004 135.442064 -0.000001 -0.629534 0.000001 0.940221 0.000000 1.709737 1.503075 -0.000001 0.113772 1.960660 -88.303780 91.989671 0.000056 -0.669733 -0.113771 0.388341 -0.667264 3.565469 132.829421 
0.000000 0.000000 0.000000 -0.000000 1.019410 0.776281 -0.000000 -0.000000 1.456275 0.000000 -43.292082 -0.000000 -0.000000 0.000002 1.471446 0.000000 -1.133463 1.229447 0.625745 0.000000 0.917755 0.000003 135.540296 -0.000001 -0.629534 0.000001 0.940221 0.000000 1.709736 1.855299 -0.000001 0.113772 1.960660 -88.303807 92.457464 0.000042 -0.669733 -0.113771 0.388340 -0.658453 3.565098 132.332989 
0.000000 0.000000 0.000000 -0.000000 1.019410 0.940097 -0.000000 0.000000 1.456275 -0.000000 -42.940300 0.000000 -0.000000 0.000002 1.471446 0.000000 -1.133463 1.492612 0.625745 0.000000 0.917755 0.000004 135.648595 -0.000001 -0.629534 0.000001 0.940221 0.000000 1.709736 2.243715 -0.000001 0.113772 1.960661 -88.303814 92.973320 0.000039 -0.669733 -0.113771 0.388340 -0.648743 3.564600 131.785563 
0.000000 0.000000 0.000000 -0.000000 1.019410 1.119105 -0.000000 0.000000 1.456275 -0.000000 -42.555890 0.000000 -0.000000 0.000002 1.471445 0.000000 -1.133456 1.780181 0.625745 0.000000 0.917755 0.000003 135.766949 -0.000001 -0.629533 0.000001 0.940221 -0.000000 1.709737 2.668151 -0.000001 0.113772 1.960660 -88.303827 93.537016 0.000033 -0.669733 -0.113771 0.388340 -0.638138 3.563950 131.187375 
0.000000 0.000000 0.000000 -0.000000 1.019410 1.313234 -0.000000 -0.000000 1.456275 0.000000 -42.139016 -0.000000 -0.000000 0.000002 1.471446 0.000000 -1.133460 2.092042 0.625745 0.000000 0.917755 0.000004 135.895315 -0.000001 -0.629534 0.000001 0.940221 -0.000000 1.709736 3.128440 -0.000001 0.113772 1.960660 -88.303848 94.148325 0.000028 -0.669733 -0.113771 0.388341 -0.626645 3.563120 130.538630 
0.000000 0.000000 0.000000 -0.000000 1.019410 1.521698 -0.000000 0.000000 1.456275 0.000000 -41.691348 0.000000 -0.000000 0.000002 1.471446 -0.000000 -1.133462 2.426931 0.625745 0.000000 0.917755 0.000003 136.033148 -0.000000 -0.629534 0.000001 0.940221 -0.000000 1.709737 3.622716 -0.000001 0.113772 1.960661 -88.303834 94.804774 0.000024 -0.669733 -0.113771 0.388339 -0.614315 3.562084 129.842019 
0.000000 0.000000 0.000000 -0.000000 1.019410 1.740849 -0.000000 0.000000 1.456275 0.000000 -41.220738 -0.000000 -0.000001 0.000002 1.471445 0.000000 -1.133457 2.778989 0.625745 0.000000 0.917755 0.000004 136.178044 -0.000001 -0.629534 0.000001 0.940221 -0.000000 1.709737 4.142336 -0.000000 0.113772 1.960660 -88.303848 95.494890 0.000024 -0.669733 -0.113771 0.388340 -0.601368 3.560836 129.109673 
0.000000 0.000000 0.000000 -0.000000 1.019410 1.966328 -0.000000 0.000000 1.456275 0.000000 -40.736543 0.000000 -0.000000 0.000002 1.471446 0.000000 -1.133454 3.141211 0.625745 0.000000 0.917755 0.000004 136.327147 -0.000001 -0.629534 0.000001 0.940221 -0.000000 1.709737 4.676955 -0.000001 0.113772 1.960660 -88.303848 96.204915 0.000025 -0.669733 -0.113771 0.388340 -0.588063 3.559376 128.356193 
0.000000 0.000000 0.000000 -0.000000 1.019410 2.193771 -0.000000 -0.000000 1.456275 -0.000000 -40.248119 0.000000 -0.000000 0.000002 1.471446 0.000000 -1.133456 3.506590 0.625745 0.000000 0.917755 0.000004 136.477534 -0.000000 -0.629534 0.000001 0.940221 -0.000001 1.709737 5.216232 -0.000000 0.113772 1.960661 -88.303855 96.921136 0.000025 -0.669733 -0.113771 0.388341 -0.574664 3.557730 127.596130 
0.000000 0.000000 0.000000 -0.000000 1.019410 2.418817 -0.000000 -0.000000 1.456275 0.000000 -39.764842 0.000000 -0.000000 0.000002 1.471446 -0.000000 -1.133460 3.868118 0.625744 0.000000 0.917755 0.000004 136.626323 -0.000001 -0.629534 0.000001 0.940221 -0.000001 1.709737 5.749827 -0.000001 0.113772 1.960660 -88.303868 97.629802 0.000034 -0.669733 -0.113771 0.388340 -0.561429 3.555925 126.844099 
0.000000 0.000000 0.000000 -0.000000 1.019410 2.637105 -0.000000 0.000000 1.456275 0.000000 -39.296090 -0.000000 -0.000000 0.000002 1.471446 -0.000000 -1.133458 4.218789 0.625745 0.000000 0.917755 0.000003 136.770659 -0.000002 -0.629534 0.000001 0.940221 -0.000000 1.709738 6.267399 -0.000000 0.113772 1.960660 -88.303862 98.317199 0.000015 -0.669733 -0.113771 0.388340 -0.548615 3.554008 126.114648 
0.000000 0.000000 0.000000 -0.000000 1.019410 2.848166 -0.000000 -0.000000 1.456275 0.000000 -38.842856 -0.000000 -0.000000 0.000002 1.471445 -0.000000 -1.133457 4.557848 0.625744 0.000000 0.917755 0.000002 136.910199 -0.000000 -0.629533 0.000001 0.940221 0.000000 1.709736 6.767832 -0.000000 0.113772 1.960661 -88.303855 98.981831 0.000004 -0.669733 -0.113771 0.388341 -0.536252 3.552002 125.409363 
0.000000 0.000000 0.000000 -0.000000 1.019410 3.067093 -0.000000 0.000000 1.456275 0.000000 -38.372713 0.000000 -0.000000 0.000002 1.471446 0.000000 -1.133460 4.909549 0.625745 0.000000 0.917755 0.000004 137.054958 -0.000001 -0.629534 0.000001 0.940221 -0.000000 1.709737 7.286920 -0.000001 0.113772 1.960661 -88.303855 99.671236 0.000014 -0.669733 -0.113771 0.388340 -0.523452 3.549759 124.677781 
0.000000 0.000000 0.000000 -0.000000 1.019410 3.312879 -0.000000 0.000000 1.456275 0.000000 -37.844917 -0.000000 -0.000000 0.000002 1.471446 -0.000000 -1.133461 5.304394 0.625745 0.000000 0.917755 0.000002 137.217476 -0.000001 -0.629534 0.000001 0.940221 0.000000 1.709737 7.869689 -0.000000 0.113772 1.960661 -88.303862 100.445220 0.000017 -0.669733 -0.113771 0.388340 -0.509121 3.547048 123.856424 
0.000000 0.000000 0.000000 -0.000000 1.019410 3.604511 -0.000000 0.000000 1.456275 -0.000000 -37.218647 0.000000 -0.000001 0.000002 1.471446 0.000000 -1.133462 5.772888 0.625745 0.000000 0.917755 0.000004 137.410292 -0.000001 -0.629534 0.000001 0.940221 -0.000001 1.709736 8.561161 -0.000000 0.113772 1.960661 -88.303862 101.363566 0.000014 -0.669733 -0.113771 0.388340 -0.492164 3.543565 122.881906 
0.000000 0.000000 0.000000 -0.000000 1.019410 3.960977 -0.000000 0.000000 1.456275 -0.000000 -36.453167 -0.000000 -0.000000 0.000002 1.471445 0.000000 -1.133458 6.345536 0.625744 0.000000 0.917755 0.000003 137.645988 -0.000001 -0.629533 0.000001 0.940221 0.000001 1.709737 9.406356 -0.000001 0.113772 1.960661 -88.303868 102.486080 0.000014 -0.669733 -0.113771 0.388340 -0.471526 3.538917 121.690735 
